<svg width="421" height="132" viewBox="0 0 421 132" fill="none" xmlns="http://www.w3.org/2000/svg">
<path d="M7.27273 71H13.6477V44.3068H29.9091C44.6705 44.3068 52.3068 34.9318 52.3068 22.7273C52.3068 10.5227 44.6705 1.18182 29.8068 1.18182H7.27273V71ZM13.6477 38.5795V6.90909H29.6364C40.6818 6.90909 46.0341 13.5568 46.0341 22.7273C46.0341 31.8636 40.6818 38.5795 29.7386 38.5795H13.6477ZM66.0795 71H72.1818V18.6364H66.0795V71ZM69.1818 9.63636C71.6705 9.63636 73.75 7.65909 73.75 5.27272C73.75 2.88636 71.6705 0.909086 69.1818 0.909086C66.6932 0.909086 64.6477 2.88636 64.6477 5.27272C64.6477 7.65909 66.6932 9.63636 69.1818 9.63636ZM128.764 18.6364H122.185L106.639 62.9886H106.162L90.6165 18.6364H84.0369L103.162 71H109.639L128.764 18.6364ZM159.114 72.0909C172.682 72.0909 182.159 61.0114 182.159 45.0568C182.159 29 172.682 17.9205 159.114 17.9205C145.545 17.9205 136.068 29 136.068 45.0568C136.068 61.0114 145.545 72.0909 159.114 72.0909ZM159.114 66.5341C148.239 66.5341 142.17 56.7841 142.17 45.0568C142.17 33.3295 148.239 23.4432 159.114 23.4432C169.989 23.4432 176.057 33.3295 176.057 45.0568C176.057 56.7841 169.989 66.5341 159.114 66.5341ZM216.105 18.6364H205.026V6.09091H198.923V18.6364H191.116V23.9205H198.923V58.7614C198.923 67.3182 205.673 71.7841 212.389 71.7841C214.912 71.7841 216.616 71.3068 217.776 70.8636L216.48 65.375C215.628 65.6136 214.537 65.8523 212.935 65.8523C208.81 65.8523 205.026 63.9091 205.026 57.3295V23.9205H216.105V18.6364ZM301.443 1.18182V46.25C301.443 55.7273 294.898 62.5455 284.261 62.5455C273.659 62.5455 267.08 55.7273 267.08 46.25V1.18182H256.545V47.1023C256.545 61.7614 267.523 72.1591 284.261 72.1591C301 72.1591 312.011 61.7614 312.011 47.1023V1.18182H301.443ZM326.509 90.6364H336.702V62.8523H337.315C339.156 66.1932 342.906 72.0227 352.452 72.0227C365.134 72.0227 374.338 61.8636 374.338 44.9205C374.338 27.9432 364.997 17.9545 352.349 17.9545C342.634 17.9545 339.122 23.8864 337.315 27.125H336.463V18.6364H326.509V90.6364ZM336.497 44.8182C336.497 33.875 341.27 26.6136 350.168 26.6136C359.406 26.6136 364.043 34.4205 364.043 44.8182C364.043 55.3182 359.27 63.3295 350.168 63.3295C341.406 63.3295 336.497 55.8295 336.497 44.8182ZM382.52 32.8182H391.656L401.474 11.2045H401.952L411.872 32.8182H420.906L406.759 3.15909H396.668L382.52 32.8182ZM23.1911 101H26.0547C25.0703 95.6158 20.4915 91.0369 13.8097 91.0369C6.06889 91.0369 0.684659 97.152 0.684659 106.727C0.684659 116.288 6.00923 122.418 14.0036 122.418C21.1477 122.418 26.2635 117.54 26.2635 109.71V107.205H14.6598V109.71H23.549C23.4744 115.96 19.5518 119.793 14.0036 119.793C7.82884 119.793 3.38423 114.93 3.38423 106.727C3.38423 98.4943 7.85867 93.6619 13.8097 93.6619C18.8509 93.6619 22.0874 96.9432 23.1911 101ZM39.0343 122.522C42.8525 122.522 45.1792 120.404 46.1337 118.376H46.2978V122H48.9526V106.444C48.9526 100.299 44.329 98.7777 40.824 98.7777C37.3191 98.7777 33.7097 100.165 32.1586 103.908L34.6792 104.818C35.5144 102.849 37.5875 101.164 40.8986 101.164C44.3738 101.164 46.2978 103.073 46.2978 106.205V106.742C46.2978 108.472 44.15 108.502 40.302 108.979C35.1266 109.621 31.5023 111.067 31.5023 115.602C31.5023 120.016 34.873 122.522 39.0343 122.522ZM39.3922 120.091C36.3944 120.091 34.1571 118.495 34.1571 115.721C34.1571 112.947 36.4242 111.783 40.302 111.306C42.1813 111.082 45.5222 110.665 46.2978 109.904V113.215C46.2978 116.974 43.628 120.091 39.3922 120.091ZM56.0147 122H58.6696V107.324C58.6696 103.759 61.041 101.224 64.2179 101.224C67.35 101.224 69.1696 103.312 69.1696 106.414V122H71.8841V106.921C71.8841 103.625 73.8528 101.224 77.3429 101.224C80.3706 101.224 82.3841 103.043 82.3841 106.653V122H85.0389V106.653C85.0389 101.522 82.399 98.7926 78.1483 98.7926C74.8074 98.7926 72.3912 100.418 71.362 102.954H71.1681C70.1539 100.359 68.1404 98.7926 64.9785 98.7926C61.9806 98.7926 59.7434 100.239 58.8336 102.611H58.595V99.0909H56.0147V122ZM101.33 122.477C105.923 122.477 109.011 119.987 110.055 117.108L107.534 116.288C106.654 118.346 104.581 120.046 101.33 120.046C96.6463 120.046 93.6783 116.631 93.5589 111.336H110.621V110.023C110.621 102.372 105.893 98.7777 100.927 98.7777C94.9908 98.7777 90.8892 103.744 90.8892 110.68C90.8892 117.63 94.9162 122.477 101.33 122.477ZM93.5739 108.994C93.8572 104.729 96.7358 101.194 100.927 101.194C105.028 101.194 107.907 104.58 107.907 108.994H93.5739ZM152.759 101C151.76 95.3771 147.166 91.0369 140.664 91.0369C132.953 91.0369 127.464 97.1669 127.464 106.727C127.464 116.288 132.953 122.418 140.664 122.418C147.166 122.418 151.76 118.062 152.759 112.455H149.955C149.105 116.646 145.451 119.793 140.664 119.793C134.877 119.793 130.164 115.214 130.164 106.727C130.164 98.2706 134.877 93.6619 140.664 93.6619C145.451 93.6619 149.105 96.8239 149.955 101H152.759ZM161.414 107.682C161.414 103.685 164.098 101.224 167.767 101.224C171.317 101.224 173.584 103.55 173.584 107.324V122H176.254V107.16C176.254 101.701 173.092 98.7926 168.439 98.7926C164.978 98.7926 162.726 100.314 161.652 102.685H161.414V91.4545H158.759V122H161.414V107.682ZM189.644 122.522C193.462 122.522 195.789 120.404 196.743 118.376H196.907V122H199.562V106.444C199.562 100.299 194.938 98.7777 191.433 98.7777C187.928 98.7777 184.319 100.165 182.768 103.908L185.289 104.818C186.124 102.849 188.197 101.164 191.508 101.164C194.983 101.164 196.907 103.073 196.907 106.205V106.742C196.907 108.472 194.759 108.502 190.911 108.979C185.736 109.621 182.112 111.067 182.112 115.602C182.112 120.016 185.482 122.522 189.644 122.522ZM190.002 120.091C187.004 120.091 184.767 118.495 184.767 115.721C184.767 112.947 187.034 111.783 190.911 111.306C192.791 111.082 196.132 110.665 196.907 109.904V113.215C196.907 116.974 194.237 120.091 190.002 120.091ZM209.279 107.682C209.279 103.685 211.904 101.224 215.513 101.224C219.033 101.224 221.3 103.58 221.3 107.324V122H223.955V107.16C223.955 101.731 220.808 98.7926 216.184 98.7926C212.829 98.7926 210.517 100.344 209.443 102.685H209.204V99.0909H206.624V122H209.279V107.682ZM239.686 131.068C245.115 131.068 249.142 128.413 249.142 122.597V99.0909H246.547V103.461H246.279C245.339 101.403 243.445 98.7777 239.239 98.7777C233.571 98.7777 229.768 103.521 229.768 110.486C229.768 117.511 233.706 121.761 239.194 121.761C243.311 121.761 245.324 119.375 246.234 117.272H246.473V122.433C246.473 126.698 243.743 128.682 239.686 128.682C235.764 128.682 233.885 126.788 232.915 125.043L230.738 126.474C232.08 129.099 235.003 131.068 239.686 131.068ZM239.507 119.33C234.958 119.33 232.438 115.691 232.438 110.441C232.438 105.281 234.914 101.194 239.507 101.194C243.997 101.194 246.517 105.072 246.517 110.441C246.517 115.974 243.922 119.33 239.507 119.33ZM265.433 122.477C270.027 122.477 273.114 119.987 274.158 117.108L271.638 116.288C270.758 118.346 268.684 120.046 265.433 120.046C260.75 120.046 257.782 116.631 257.662 111.336H274.725V110.023C274.725 102.372 269.997 98.7777 265.03 98.7777C259.094 98.7777 254.993 103.744 254.993 110.68C254.993 117.63 259.02 122.477 265.433 122.477ZM257.677 108.994C257.961 104.729 260.839 101.194 265.03 101.194C269.132 101.194 272.01 104.58 272.01 108.994H257.677ZM280.575 122H283.23V107.205C283.23 103.804 285.84 101.343 289.42 101.343C290.121 101.343 290.777 101.462 291.016 101.492V98.7926C290.658 98.7777 290.046 98.7479 289.614 98.7479C286.735 98.7479 284.274 100.299 283.349 102.611H283.156V99.0909H280.575V122ZM310.938 104.117C309.819 100.806 307.373 98.7777 303.182 98.7777C298.559 98.7777 295.203 101.418 295.203 105.191C295.203 108.263 297.067 110.352 301.05 111.306L304.793 112.201C307.314 112.798 308.522 114.095 308.522 115.93C308.522 118.316 306.24 120.091 302.72 120.091C299.588 120.091 297.634 118.674 296.993 115.96L294.442 116.586C295.248 120.404 298.275 122.477 302.765 122.477C307.806 122.477 311.266 119.703 311.266 115.81C311.266 112.753 309.342 110.71 305.509 109.77L302.049 108.92C299.2 108.204 297.873 107.055 297.873 105.072C297.873 102.745 300.095 101.119 303.182 101.119C306.27 101.119 307.791 102.745 308.507 104.803L310.938 104.117Z" fill="#1A2332"/>
</svg>
